<svg xmlns="http://www.w3.org/2000/svg" viewBox="0 0 211.23 71"><defs><style>.cls-1{fill:#fbfbfb;}</style></defs><g id="レイヤー_2" data-name="レイヤー 2"><g id="レイヤー_1-2" data-name="レイヤー 1"><g id="レイヤー_2-2" data-name="レイヤー 2"><g id="レイヤー_4" data-name="レイヤー 4"><path class="cls-1" d="M123.66,15.38V0H108.28V45.76h15.38V71H139V0A15.4,15.4,0,0,0,123.66,15.38Z"/><rect class="cls-1" x="144.32" width="23.22" height="11.93"/><path class="cls-1" d="M159.7,18H144.32V71H159.7a15.4,15.4,0,0,0,15-15.38V33.38A15.39,15.39,0,0,0,159.7,18Z"/><path class="cls-1" d="M195.35,18V0H180V71h15.38a15.4,15.4,0,0,0,15-15.38V33.38A15.39,15.39,0,0,0,195.35,18Z"/><rect class="cls-1" x="72.08" width="23.22" height="11.93"/><path class="cls-1" d="M87.47,18H72.08V71H87.47a15.4,15.4,0,0,0,15-15.38V33.38A15.43,15.43,0,0,0,87.47,18Z"/><path class="cls-1" d="M51.33,18V0H35.94V55.62A15.4,15.4,0,0,0,51,71H66.37V18Z"/><path class="cls-1" d="M202.25,12.33a22.27,22.27,0,0,1,8.68,5.47c.1.1.2.25.3.34V0h-9V12.33Z"/><path class="cls-1" d="M15.38,18V0H0V71H15.38a15.39,15.39,0,0,0,15-15.38V33.38A15.39,15.39,0,0,0,15.38,18Z"/><path class="cls-1" d="M22.29,12.28A22.35,22.35,0,0,1,31,17.75c.1.1.2.25.3.35V0h-9Z"/></g></g></g></g></svg>